<svg xmlns="http://www.w3.org/2000/svg" style="display: none;">
    <symbol id="icon-github" viewBox="0 0 512 512">
        <path fill="currentColor" d="M173.9 397.4c0 2-2.3 3.6-5.2 3.6-3.3 .3-5.6-1.3-5.6-3.6 0-2 2.3-3.6 5.2-3.6 3-.3 5.6 1.3 5.6 3.6zm-31.1-4.5c-.7 2 1.3 4.3 4.3 4.9 2.6 1 5.6 0 6.2-2s-1.3-4.3-4.3-5.2c-2.6-.7-5.5 .3-6.2 2.3zm44.2-1.7c-2.9 .7-4.9 2.6-4.6 4.9 .3 2 2.9 3.3 5.9 2.6 2.9-.7 4.9-2.6 4.6-4.6-.3-1.9-3-3.2-5.9-2.9zM252.8 8c-138.7 0-244.8 105.3-244.8 244 0 110.9 69.8 205.8 169.5 239.2 12.8 2.3 17.3-5.6 17.3-12.1 0-6.2-.3-40.4-.3-61.4 0 0-70 15-84.7-29.8 0 0-11.4-29.1-27.8-36.6 0 0-22.9-15.7 1.6-15.4 0 0 24.9 2 38.6 25.8 21.9 38.6 58.6 27.5 72.9 20.9 2.3-16 8.8-27.1 16-33.7-55.9-6.2-112.3-14.3-112.3-110.5 0-27.5 7.6-41.3 23.6-58.9-2.6-6.5-11.1-33.3 2.6-67.9 20.9-6.5 69 27 69 27 20-5.6 41.5-8.5 62.8-8.5s42.8 2.9 62.8 8.5c0 0 48.1-33.6 69-27 13.7 34.7 5.2 61.4 2.6 67.9 16 17.7 25.8 31.5 25.8 58.9 0 96.5-58.9 104.2-114.8 110.5 9.2 7.9 17 22.9 17 46.4 0 33.7-.3 75.4-.3 83.6 0 6.5 4.6 14.4 17.3 12.1 100-33.2 167.8-128.1 167.8-239 0-138.7-112.5-244-251.2-244zM105.2 352.9c-1.3 1-1 3.3 .7 5.2 1.6 1.6 3.9 2.3 5.2 1 1.3-1 1-3.3-.7-5.2-1.6-1.6-3.9-2.3-5.2-1zm-10.8-8.1c-.7 1.3 .3 2.9 2.3 3.9 1.6 1 3.6 .7 4.3-.7 .7-1.3-.3-2.9-2.3-3.9-2-.6-3.6-.3-4.3 .7zm32.4 35.6c-1.6 1.3-1 4.3 1.3 6.2 2.3 2.3 5.2 2.6 6.5 1 1.3-1.3 .7-4.3-1.3-6.2-2.2-2.3-5.2-2.6-6.5-1zm-11.4-14.7c-1.6 1-1.6 3.6 0 5.9s4.3 3.3 5.6 2.3c1.6-1.3 1.6-3.9 0-6.2-1.4-2.3-4-3.3-5.6-2z"/>
    </symbol>
    <symbol id="icon-linkedin" viewBox="0 0 448 512">
        <path fill="currentColor" d="M416 32L31.9 32C14.3 32 0 46.5 0 64.3L0 447.7C0 465.5 14.3 480 31.9 480L416 480c17.6 0 32-14.5 32-32.3l0-383.4C448 46.5 433.6 32 416 32zM135.4 416l-66.4 0 0-213.8 66.5 0 0 213.8-.1 0zM102.2 96a38.5 38.5 0 1 1 0 77 38.5 38.5 0 1 1 0-77zM384.3 416l-66.4 0 0-104c0-24.8-.5-56.7-34.5-56.7-34.6 0-39.9 27-39.9 54.9l0 105.8-66.4 0 0-213.8 63.7 0 0 29.2 .9 0c8.9-16.8 30.6-34.5 62.9-34.5 67.2 0 79.7 44.3 79.7 101.9l0 117.2z"/>
    </symbol>
    <symbol id="icon-youtube" viewBox="0 0 576 512">
        <path fill="currentColor" d="M549.7 124.1C543.5 100.4 524.9 81.8 501.4 75.5 458.9 64 288.1 64 288.1 64S117.3 64 74.7 75.5C51.2 81.8 32.7 100.4 26.4 124.1 15 167 15 256.4 15 256.4s0 89.4 11.4 132.3c6.3 23.6 24.8 41.5 48.3 47.8 42.6 11.5 213.4 11.5 213.4 11.5s170.8 0 213.4-11.5c23.5-6.3 42-24.2 48.3-47.8 11.4-42.9 11.4-132.3 11.4-132.3s0-89.4-11.4-132.3zM232.2 337.6l0-162.4 142.7 81.2-142.7 81.2z"/>
    </symbol>
    <symbol id="icon-arrow-right" viewBox="0 0 512 512">
        <path fill="currentColor" d="M502.6 278.6c12.5-12.5 12.5-32.8 0-45.3l-160-160c-12.5-12.5-32.8-12.5-45.3 0s-12.5 32.8 0 45.3L402.7 224 32 224c-17.7 0-32 14.3-32 32s14.3 32 32 32l370.7 0-105.4 105.4c-12.5 12.5-12.5 32.8 0 45.3s32.8 12.5 45.3 0l160-160z"/>
    </symbol>
    <symbol id="icon-code" viewBox="0 0 576 512">
        <path fill="currentColor" d="M360.8 1.2c-17-4.9-34.7 5-39.6 22l-128 448c-4.9 17 5 34.7 22 39.6s34.7-5 39.6-22l128-448c4.9-17-5-34.7-22-39.6zm64.6 136.1c-12.5 12.5-12.5 32.8 0 45.3l73.4 73.4-73.4 73.4c-12.5 12.5-12.5 32.8 0 45.3s32.8 12.5 45.3 0l96-96c12.5-12.5 12.5-32.8 0-45.3l-96-96c-12.5-12.5-32.8-12.5-45.3 0zm-274.7 0c-12.5-12.5-32.8-12.5-45.3 0l-96 96c-12.5 12.5-12.5 32.8 0 45.3l96 96c12.5 12.5 32.8 12.5 45.3 0s12.5-32.8 0-45.3L77.3 256 150.6 182.6c12.5-12.5 12.5-32.8 0-45.3z"/>
    </symbol>
    <symbol id="icon-download" viewBox="0 0 448 512">
        <path fill="currentColor" d="M256 32c0-17.7-14.3-32-32-32s-32 14.3-32 32l0 210.7-41.4-41.4c-12.5-12.5-32.8-12.5-45.3 0s-12.5 32.8 0 45.3l96 96c12.5 12.5 32.8 12.5 45.3 0l96-96c12.5-12.5 12.5-32.8 0-45.3s-32.8-12.5-45.3 0L256 242.7 256 32zM64 320c-35.3 0-64 28.7-64 64l0 32c0 35.3 28.7 64 64 64l320 0c35.3 0 64-28.7 64-64l0-32c0-35.3-28.7-64-64-64l-46.9 0-56.6 56.6c-31.2 31.2-81.9 31.2-113.1 0L110.9 320 64 320zm304 56a24 24 0 1 1 0 48 24 24 0 1 1 0-48z"/>
    </symbol>
    <symbol id="icon-cube" viewBox="0 0 512 512">
        <path fill="currentColor" d="M224.3-2.5c19.8-11.4 44.2-11.4 64 0L464.2 99c19.8 11.4 32 32.6 32 55.4l0 203c0 22.9-12.2 44-32 55.4L288.3 514.5c-19.8 11.4-44.2 11.4-64 0L48.5 413c-19.8-11.4-32-32.6-32-55.4l0-203c0-22.9 12.2-44 32-55.4L224.3-2.5zm207.8 360l0-166.1-143.8 83 0 166.1 143.8-83z"/>
    </symbol>
    <symbol id="icon-external-link" viewBox="0 0 512 512">
        <path fill="currentColor" d="M320 0c-17.7 0-32 14.3-32 32s14.3 32 32 32l82.7 0-201.4 201.4c-12.5 12.5-12.5 32.8 0 45.3s32.8 12.5 45.3 0L448 109.3 448 192c0 17.7 14.3 32 32 32s32-14.3 32-32l0-160c0-17.7-14.3-32-32-32L320 0zM80 96C35.8 96 0 131.8 0 176L0 432c0 44.2 35.8 80 80 80l256 0c44.2 0 80-35.8 80-80l0-80c0-17.7-14.3-32-32-32s-32 14.3-32 32l0 80c0 8.8-7.2 16-16 16L80 448c-8.8 0-16-7.2-16-16l0-256c0-8.8 7.2-16 16-16l80 0c17.7 0 32-14.3 32-32s-14.3-32-32-32L80 96z"/>
    </symbol>
    <symbol id="icon-star" viewBox="0 0 576 512">
        <path fill="currentColor" d="M309.5-18.9c-4.1-8-12.4-13.1-21.4-13.1s-17.3 5.1-21.4 13.1L193.1 125.3 33.2 150.7c-8.9 1.4-16.3 7.7-19.1 16.3s-.5 18 5.8 24.4l114.4 114.5-25.2 159.9c-1.4 8.9 2.3 17.9 9.6 23.2s16.9 6.1 25 2L288.1 417.6 432.4 491c8 4.1 17.7 3.3 25-2s11-14.2 9.6-23.2L441.7 305.9 556.1 191.4c6.4-6.4 8.6-15.8 5.8-24.4s-10.1-14.9-19.1-16.3L383 125.3 309.5-18.9z"/>
    </symbol>
    <symbol id="icon-code-branch" viewBox="0 0 448 512">
        <path fill="currentColor" d="M80 104a24 24 0 1 0 0-48 24 24 0 1 0 0 48zm80-24c0 32.8-19.7 61-48 73.3l0 70.7 176 0c26.5 0 48-21.5 48-48l0-22.7c-28.3-12.3-48-40.5-48-73.3 0-44.2 35.8-80 80-80s80 35.8 80 80c0 32.8-19.7 61-48 73.3l0 22.7c0 61.9-50.1 112-112 112l-176 0 0 70.7c28.3 12.3 48 40.5 48 73.3 0 44.2-35.8 80-80 80S0 476.2 0 432c0-32.8 19.7-61 48-73.3l0-205.3C19.7 141 0 112.8 0 80 0 35.8 35.8 0 80 0s80 35.8 80 80zm232 0a24 24 0 1 0 -48 0 24 24 0 1 0 48 0zM80 456a24 24 0 1 0 0-48 24 24 0 1 0 0 48z"/>
    </symbol>
    <symbol id="icon-eye" viewBox="0 0 576 512">
        <path fill="currentColor" d="M288 32c-80.8 0-145.5 36.8-192.6 80.6-46.8 43.5-78.1 95.4-93 131.1-3.3 7.9-3.3 16.7 0 24.6 14.9 35.7 46.2 87.7 93 131.1 47.1 43.7 111.8 80.6 192.6 80.6s145.5-36.8 192.6-80.6c46.8-43.5 78.1-95.4 93-131.1 3.3-7.9 3.3-16.7 0-24.6-14.9-35.7-46.2-87.7-93-131.1-47.1-43.7-111.8-80.6-192.6-80.6zM144 256a144 144 0 1 1 288 0 144 144 0 1 1 -288 0zm144-64c0 35.3-28.7 64-64 64-11.5 0-22.3-3-31.7-8.4-1 10.9-.1 22.1 2.9 33.2 13.7 51.2 66.4 81.6 117.6 67.9s81.6-66.4 67.9-117.6c-12.2-45.7-55.5-74.8-101.1-70.8 5.3 9.3 8.4 20.1 8.4 31.7z"/>
    </symbol>
    <symbol id="icon-database" viewBox="0 0 448 512">
        <path fill="currentColor" d="M448 205.8c-14.8 9.8-31.8 17.7-49.5 24-47 16.8-108.7 26.2-174.5 26.2S96.4 246.5 49.5 229.8c-17.6-6.3-34.7-14.2-49.5-24L0 288c0 44.2 100.3 80 224 80s224-35.8 224-80l0-82.2zm0-77.8l0-48C448 35.8 347.7 0 224 0S0 35.8 0 80l0 48c0 44.2 100.3 80 224 80s224-35.8 224-80zM398.5 389.8C351.6 406.5 289.9 416 224 416S96.4 406.5 49.5 389.8c-17.6-6.3-34.7-14.2-49.5-24L0 432c0 44.2 100.3 80 224 80s224-35.8 224-80l0-66.2c-14.8 9.8-31.8 17.7-49.5 24z"/>
    </symbol>
    <symbol id="icon-code-fork" viewBox="0 0 448 512">
        <path fill="currentColor" d="M80 104a24 24 0 1 0 0-48 24 24 0 1 0 0 48zm80-24c0 32.8-19.7 61-48 73.3l0 22.7c0 26.5 21.5 48 48 48l128 0c26.5 0 48-21.5 48-48l0-22.7c-28.3-12.3-48-40.5-48-73.3 0-44.2 35.8-80 80-80s80 35.8 80 80c0 32.8-19.7 61-48 73.3l0 22.7c0 61.9-50.1 112-112 112l-32 0 0 70.7c28.3 12.3 48 40.5 48 73.3 0 44.2-35.8 80-80 80s-80-35.8-80-80c0-32.8 19.7-61 48-73.3l0-70.7-32 0C98.1 288 48 237.9 48 176l0-22.7C19.7 141 0 112.8 0 80 0 35.8 35.8 0 80 0s80 35.8 80 80zm208 24a24 24 0 1 0 0-48 24 24 0 1 0 0 48zM248 432a24 24 0 1 0 -48 0 24 24 0 1 0 48 0z"/>
    </symbol>
    <symbol id="icon-calendar" viewBox="0 0 448 512">
        <path fill="currentColor" d="M120 0c13.3 0 24 10.7 24 24l0 40 160 0 0-40c0-13.3 10.7-24 24-24s24 10.7 24 24l0 40 32 0c35.3 0 64 28.7 64 64l0 288c0 35.3-28.7 64-64 64L64 480c-35.3 0-64-28.7-64-64L0 128C0 92.7 28.7 64 64 64l32 0 0-40c0-13.3 10.7-24 24-24zm0 112l-56 0c-8.8 0-16 7.2-16 16l0 48 352 0 0-48c0-8.8-7.2-16-16-16l-264 0zM48 224l0 192c0 8.8 7.2 16 16 16l320 0c8.8 0 16-7.2 16-16l0-192-352 0z"/>
    </symbol>
    <symbol id="icon-file-text" viewBox="0 0 384 512">
        <path fill="currentColor" d="M0 64C0 28.7 28.7 0 64 0L213.5 0c17 0 33.3 6.7 45.3 18.7L365.3 125.3c12 12 18.7 28.3 18.7 45.3L384 448c0 35.3-28.7 64-64 64L64 512c-35.3 0-64-28.7-64-64L0 64zm208-5.5l0 93.5c0 13.3 10.7 24 24 24L325.5 176 208 58.5zM120 256c-13.3 0-24 10.7-24 24s10.7 24 24 24l144 0c13.3 0 24-10.7 24-24s-10.7-24-24-24l-144 0zm0 96c-13.3 0-24 10.7-24 24s10.7 24 24 24l144 0c13.3 0 24-10.7 24-24s-10.7-24-24-24l-144 0z"/>
    </symbol>
    <symbol id="icon-language" viewBox="0 0 576 512">
        <path fill="currentColor" d="M160 0c17.7 0 32 14.3 32 32l0 32 128 0c17.7 0 32 14.3 32 32s-14.3 32-32 32l-9.6 0-8.4 23.1c-16.4 45.2-41.1 86.5-72.2 122 14.2 8.8 29 16.6 44.4 23.5l50.4 22.4 62.2-140c5.1-11.6 16.6-19 29.2-19s24.1 7.4 29.2 19l128 288c7.2 16.2-.1 35.1-16.2 42.2s-35.1-.1-42.2-16.2l-20-45-157.5 0-20 45c-7.2 16.2-26.1 23.4-42.2 16.2s-23.4-26.1-16.2-42.2l39.8-89.5-50.4-22.4c-23-10.2-45-22.4-65.8-36.4-21.3 17.2-44.6 32.2-69.5 44.7L78.3 380.6c-15.8 7.9-35 1.5-42.9-14.3s-1.5-35 14.3-42.9l34.5-17.3c16.3-8.2 31.8-17.7 46.4-28.3-13.8-12.7-26.8-26.4-38.9-40.9L81.6 224.7c-11.3-13.6-9.5-33.8 4.1-45.1s33.8-9.5 45.1 4.1l10.2 12.2c11.5 13.9 24.1 26.8 37.4 38.7 27.5-30.4 49.2-66.1 63.5-105.4l.5-1.2-210.3 0C14.3 128 0 113.7 0 96S14.3 64 32 64l96 0 0-32c0-17.7 14.3-32 32-32zM416 270.8L365.7 384 466.3 384 416 270.8z"/>
    </symbol>
    <symbol id="icon-file-pdf" viewBox="0 0 576 512">
        <path fill="currentColor" d="M208 48L96 48c-8.8 0-16 7.2-16 16l0 384c0 8.8 7.2 16 16 16l80 0 0 48-80 0c-35.3 0-64-28.7-64-64L32 64C32 28.7 60.7 0 96 0L229.5 0c17 0 33.3 6.7 45.3 18.7L397.3 141.3c12 12 18.7 28.3 18.7 45.3l0 149.5-48 0 0-128-88 0c-39.8 0-72-32.2-72-72l0-88zM348.1 160L256 67.9 256 136c0 13.3 10.7 24 24 24l68.1 0zM240 380l32 0c33.1 0 60 26.9 60 60s-26.9 60-60 60l-12 0 0 28c0 11-9 20-20 20s-20-9-20-20l0-128c0-11 9-20 20-20zm32 80c11 0 20-9 20-20s-9-20-20-20l-12 0 0 40 12 0zm96-80l32 0c28.7 0 52 23.3 52 52l0 64c0 28.7-23.3 52-52 52l-32 0c-11 0-20-9-20-20l0-128c0-11 9-20 20-20zm32 128c6.6 0 12-5.4 12-12l0-64c0-6.6-5.4-12-12-12l-12 0 0 88 12 0zm76-108c0-11 9-20 20-20l48 0c11 0 20 9 20 20s-9 20-20 20l-28 0 0 24 28 0c11 0 20 9 20 20s-9 20-20 20l-28 0 0 44c0 11-9 20-20 20s-20-9-20-20l0-128z"/>
    </symbol>
</svg>